<?xml version="1.0" encoding="UTF-8" standalone="no"?>
<!-- Created with Inkscape (http://www.inkscape.org/) -->

<svg
   xmlns:dc="http://purl.org/dc/elements/1.1/"
   xmlns:cc="http://creativecommons.org/ns#"
   xmlns:rdf="http://www.w3.org/1999/02/22-rdf-syntax-ns#"
   xmlns:svg="http://www.w3.org/2000/svg"
   xmlns="http://www.w3.org/2000/svg"
   xmlns:sodipodi="http://sodipodi.sourceforge.net/DTD/sodipodi-0.dtd"
   xmlns:inkscape="http://www.inkscape.org/namespaces/inkscape"
   width="254.65883mm"
   height="115.82986mm"
   id="svg2458"
   sodipodi:version="0.32"
   inkscape:version="0.92.4 (5da689c313, 2019-01-14)"
   sodipodi:docname="logo_pog.svg"
   version="1.1">
  <defs
     id="defs2460" />
  <sodipodi:namedview
     inkscape:document-units="mm"
     pagecolor="#ffffff"
     bordercolor="#666666"
     borderopacity="1.0"
     inkscape:pageopacity="0.0"
     inkscape:pageshadow="2"
     inkscape:zoom="0.43415836"
     inkscape:cx="56.544412"
     inkscape:cy="149.66103"
     inkscape:current-layer="layer1"
     id="namedview2462"
     inkscape:window-width="1874"
     inkscape:window-height="1052"
     inkscape:window-x="1412"
     inkscape:window-y="91"
     showgrid="false"
     inkscape:window-maximized="1"
     fit-margin-top="0"
     fit-margin-left="0"
     fit-margin-right="0"
     fit-margin-bottom="0" />
  <metadata
     id="metadata2464">
    <rdf:RDF>
      <cc:Work
         rdf:about="">
        <dc:format>image/svg+xml</dc:format>
        <dc:type
           rdf:resource="http://purl.org/dc/dcmitype/StillImage" />
        <dc:title></dc:title>
      </cc:Work>
    </rdf:RDF>
  </metadata>
  <g
     inkscape:label="Layer 1"
     inkscape:groupmode="layer"
     id="layer1"
     transform="translate(-26.921899,-134.7929)">
    <g
       id="g824">
      <path
         inkscape:connector-curvature="0"
         d="m 449.71753,486.37492 h -67.59365 l 36.10927,-82.17072 h -31.0442 v -8.14873 h 39.18937 c 4.54895,0 7.84855,0.77596 9.90709,2.31363 2.05379,1.54124 3.08247,3.78012 3.08247,6.71191 0,1.47242 -0.22306,3.08959 -0.66206,4.84558 -0.44137,1.76666 -1.17461,3.66977 -2.19973,5.7295 l -28.18122,62.5701 h 41.39384 v 8.14873 h -10e-4 z m 29.31905,0.13051 c -5.43644,0 -9.17384,-1.28495 -11.23238,-3.85249 -2.05736,-2.56991 -3.30316,-5.4661 -3.74097,-8.6957 0,-0.73324 -0.0391,-1.42733 -0.11034,-2.09057 -0.0748,-0.66206 -0.11034,-1.3597 -0.11034,-2.09295 0,-0.29543 0.0368,-0.62409 0.11034,-0.98952 0.0712,-0.37137 0.11034,-0.77358 0.11034,-1.21495 0,-0.43781 0.0344,-0.8424 0.10916,-1.21021 0.0747,-0.36544 0.1139,-0.69765 0.1139,-0.98834 V 337.00802 h 19.59112 V 463.6076 c 0,4.9927 0.29544,8.69807 0.878,11.12323 0.58731,2.42516 2.49991,3.63181 5.7295,3.63181 h 9.68641 v 8.14517 h -21.13474 v -0.002 z m 88.93484,-4.69014 c -6.67988,4.91676 -13.98027,7.59227 -21.90239,8.03008 -0.44255,0 -0.84477,0 -1.21139,0 -0.36662,0 -0.77715,0 -1.21377,0 -7.92923,0 -15.1537,-2.20329 -21.68288,-6.59919 -6.53157,-4.40302 -9.79794,-11.01289 -9.79794,-19.81893 v -67.37178 h 18.05226 v 65.83411 c 0,5.72119 1.7987,10.08743 5.39729,13.09634 3.59622,3.01365 7.51871,4.51574 11.7758,4.51574 0.58968,0 1.1758,-0.0356 1.76073,-0.11153 0.58612,-0.0712 1.17699,-0.18153 1.76311,-0.32629 4.40064,-0.7368 8.40382,-2.97212 11.99647,-6.71902 3.59741,-3.74097 5.39492,-8.84282 5.39492,-15.30082 v -60.98853 h 9.68641 v 64.06744 c -10e-4,9.54403 -3.33875,16.77205 -10.01862,21.69238 z m 89.38688,0 c -6.67869,4.91676 -13.97909,7.59227 -21.90476,8.03008 -0.44137,0 -0.84121,0 -1.20902,0 -0.36781,0 -0.77715,0 -1.21496,0 -7.92804,0 -15.15251,-2.20329 -21.68407,-6.59919 -6.53275,-4.40302 -9.79675,-11.01289 -9.79675,-19.81893 v -67.37178 h 18.05345 v 65.83411 c 0,5.72119 1.79989,10.08743 5.39729,13.09634 3.59622,3.01365 7.5199,4.51574 11.77698,4.51574 0.58494,0 1.17343,-0.0356 1.76311,-0.11153 0.58256,-0.0712 1.17461,-0.18153 1.75954,-0.32629 4.39947,-0.7368 8.40146,-2.97212 11.99767,-6.71902 3.59384,-3.74097 5.39373,-8.84282 5.39373,-15.30082 v -60.98853 h 9.68641 v 64.06744 c 0,9.54403 -3.33994,16.77205 -10.01862,21.69238 z"
         id="path1093"
         style="fill:#800000;fill-opacity:1" />
      <path
         inkscape:connector-curvature="0"
         d="m 759.49863,413.40059 c -4.10996,-6.458 -9.17029,-11.33917 -15.18929,-14.64114 -6.01901,-3.30078 -13.57924,-4.95591 -22.68072,-4.95591 -13.79755,0.44255 -24.21957,5.36169 -31.26369,14.75148 -7.0465,9.39572 -10.71746,19.74418 -11.01289,31.04775 0,0.14594 0,0.32984 0,0.54697 0,0.22068 0,0.47696 0,0.76884 0,0.44255 0,0.88274 0,1.31936 0,0.44256 0,0.88393 0,1.32174 0.439,9.39809 3.16789,18.27769 8.1689,26.64355 5.00456,8.36585 11.98817,14.08942 20.96625,17.17308 1.9126,0.58375 4.04352,0.99071 6.39749,1.21021 2.35516,0.21831 4.71269,0.32747 7.06785,0.32747 1.02986,0 2.13329,-0.0392 3.31146,-0.1056 1.17343,-0.0759 2.28041,-0.18628 3.30672,-0.33696 3.08958,-0.44137 6.07239,-1.09512 8.94129,-1.9743 2.87009,-0.88274 5.33678,-2.20448 7.39176,-3.96521 v 45.79924 h 18.0582 v -88.29058 h -18.0582 v 26.19862 c -1.47242,3.96521 -3.31383,7.15328 -5.52305,9.57963 -2.2116,2.42041 -4.49676,4.14792 -6.85191,5.1683 -0.88393,0.44137 -1.7643,0.7368 -2.64704,0.88748 -0.88274,0.14712 -1.77022,0.21713 -2.65415,0.21713 -0.44611,0 -0.92308,-0.0356 -1.43801,-0.11153 -0.51256,-0.0712 -0.99189,-0.1056 -1.43208,-0.1056 -5.59662,-1.32529 -10.75305,-5.87306 -15.47048,-13.6528 -4.71388,-7.77855 -7.07141,-17.17427 -7.07141,-28.18123 0,-12.47819 2.59957,-21.9795 7.81414,-28.51225 5.21101,-6.528 10.97611,-9.79675 17.27987,-9.79675 0.88036,0 1.75954,0.0747 2.64347,0.22543 0.88037,0.14594 1.76429,0.29188 2.64703,0.43663 3.23078,0.88392 6.41529,2.6411 9.57369,5.28457 3.15366,2.64347 5.83273,6.23375 8.03602,10.78508 z"
         id="path1095"
         style="fill:#800000;fill-opacity:1" />
      <path
         inkscape:connector-curvature="0"
         d="m 781.36304,481.3051 c -0.96579,1.04529 -2.13091,1.56615 -3.49536,1.56615 -1.20902,0 -2.29109,-0.50069 -3.25095,-1.50089 -0.96579,-1.00732 -1.52462,-2.15465 -1.68954,-3.43842 0,-1.2019 0.48052,-2.32905 1.4475,-3.37553 0.96223,-1.03935 2.12973,-1.56377 3.49299,-1.56377 1.52818,0 2.73364,0.44137 3.61994,1.32292 0.88393,0.88393 1.32649,2.09057 1.32649,3.61638 0,1.20547 -0.48883,2.32906 -1.45107,3.37316 z m 100.11383,-25.60301 c -2.44414,5.76035 -5.81374,10.7839 -10.0993,15.06115 -4.27963,4.282 -9.31267,7.66109 -15.0742,10.14083 -5.76985,2.47855 -11.85529,3.7208 -18.26465,3.7208 -6.2468,0 -12.23614,-1.20191 -17.96327,-3.59978 -5.72713,-2.40143 -10.76848,-5.80069 -15.14065,-10.20015 -4.36386,-4.39946 -7.7916,-9.46097 -10.26896,-15.18098 -2.48212,-5.71764 -3.72792,-11.73664 -3.72792,-18.06057 0,-6.23732 1.2019,-12.30141 3.60571,-18.17922 2.4038,-5.87662 5.78526,-10.95594 10.15269,-15.23794 4.36743,-4.28081 9.47165,-7.63854 15.32099,-10.08031 5.8434,-2.44059 11.85292,-3.66266 18.02023,-3.66266 6.40817,0 12.49361,1.22326 18.26464,3.66266 5.76154,2.44177 10.77441,5.74018 15.02081,9.89997 4.24047,4.15861 7.60651,9.22012 10.08744,15.17743 2.48567,5.96205 3.72791,12.0997 3.72791,18.41888 10e-4,6.32512 -1.22326,12.36666 -3.66147,18.11989 z m -15.64608,-46.40671 c -7.86517,-7.57566 -17.15054,-11.36409 -27.85258,-11.36409 -11.25967,0 -20.66132,3.90589 -28.20495,11.72003 -7.55312,7.81889 -11.32493,17.10783 -11.32493,27.87393 0,11.32731 3.913,20.75269 11.73782,28.29157 7.8272,7.53413 17.09241,11.3012 27.79325,11.3012 11.26205,0 19.72994,-2.96619 25.39775,-8.91282 5.66899,-5.93832 9.46453,-11.36172 11.3807,-16.26662 1.91972,-4.90015 2.87721,-9.70657 2.87721,-14.41333 -10e-4,-11.24307 -3.93911,-20.6554 -11.80427,-28.22987 z m 62.39331,42.591 c -4.99625,6.80445 -11.17425,11.1695 -18.52329,13.08923 l 22.13849,17.89564 -10.75186,-0.005 -21.5239,-17.06986 v 17.0746 h -7.50566 v -90.0691 h 1.31581 5.40084 0.72138 c 6.47936,0 12.47582,1.66344 17.98582,4.98202 5.51712,3.32332 9.93794,7.84974 13.25652,13.56975 3.32095,5.72475 4.97965,11.86952 4.97965,18.43668 0.002,7.92686 -2.49872,15.2937 -7.4938,22.09578 v 0 z m -6.33697,-40.74959 c -4.21912,-4.28556 -7.99568,-7.16632 -11.34155,-8.64942 -3.34231,-1.47717 -7.00496,-2.21872 -10.98085,-2.21872 v 59.08542 c 4.06131,0 7.756,-0.74155 11.10069,-2.22464 3.3423,-1.48192 7.09988,-4.42319 11.27866,-8.8274 4.17877,-4.39827 6.26697,-10.5644 6.26697,-18.48889 10e-4,-8.16771 -2.10718,-14.3896 -6.32392,-18.67635 z m 67.52483,2.61856 v 69.11472 h -2.03837 c -5.91696,0 -11.71647,-1.21852 -17.3997,-3.66266 -5.67848,-2.44059 -10.45643,-5.60255 -14.33858,-9.48471 -3.88097,-3.88334 -7.05955,-8.64705 -9.53929,-14.29231 -2.47736,-5.64526 -3.71723,-11.50646 -3.71723,-17.59547 0,-6.16138 1.17698,-11.94546 3.53807,-17.34987 2.35872,-5.40678 5.58238,-10.18828 9.65556,-14.35045 4.0803,-4.1681 8.22229,-7.14853 12.42124,-8.95079 4.19657,-1.80107 7.6421,-2.97924 10.31999,-3.54401 2.68144,-0.55527 5.7034,-0.83884 9.05994,-0.83884 h 2.03837 v 7.50566 h -2.03481 c -10.62016,0 -19.52587,3.77656 -26.71355,11.33205 -7.18768,7.55194 -10.7839,16.32475 -10.7839,26.3149 0,10.71152 3.3079,19.24349 9.92014,25.59826 6.61224,6.35478 13.9779,10.25117 22.11002,11.69037 v -61.48685 z"
         id="path1097"
         style="fill:#800000;fill-opacity:1" />
      <path
         inkscape:connector-curvature="0"
         d="m 250.5755,203.65383 c 2.39313,0 4.72337,0.0783 6.97293,0.2278 2.25194,0.15305 4.42675,0.37493 6.53749,0.66917 15.01251,1.80582 29.42229,6.6158 43.22933,14.41808 13.80467,7.80584 24.31687,18.61584 31.52235,32.42645 l -19.80944,16.66171 c -3.00535,-10.80644 -9.01011,-19.74418 -18.01429,-26.79779 -9.00775,-7.04768 -18.61584,-11.48274 -28.82667,-13.28144 -1.79752,-0.29543 -3.52859,-0.52324 -5.17542,-0.68222 -1.65988,-0.14713 -3.22959,-0.22543 -4.73167,-0.22543 -0.29662,0 -0.52443,0 -0.67392,0 -0.15306,0 -0.38205,0 -0.67867,0 -11.10899,0.30373 -21.31982,4.05775 -30.62537,11.26798 -9.30317,7.20666 -14.55927,18.17091 -15.75405,32.88323 l -0.0558,2.82026 c 0,11.1173 3.72198,19.86046 12.88515,26.46914 9.15368,6.60631 20.18793,12.61108 33.10511,18.01311 3.2996,1.50327 6.74513,3.01247 10.35321,4.5098 3.60333,1.50208 7.20667,3.00416 10.81,4.50625 16.81002,7.50684 32.27695,17.19325 46.38654,29.0521 14.10604,11.87071 21.16677,29.66313 21.16677,53.38439 v 3.1584 c 0,7.24938 -0.99664,14.1535 -2.98874,20.70998 L 463.4344,315.93736 282.07293,135.63186 l -78.7857,79.24723 c 14.55927,-7.47837 30.31926,-11.22526 47.28827,-11.22526 z"
         id="path1099"
         style="fill:#000080;fill-opacity:1;stroke:#ffffff;stroke-width:1.18647802" />
      <path
         inkscape:connector-curvature="0"
         d="m 251.91978,497.38425 c -0.89816,0 -1.64683,0 -2.25075,0 -0.60392,0 -1.2019,0 -1.79751,0 -0.60273,0 -1.20191,0 -1.80582,0 -0.60273,0 -1.20546,0 -1.79752,0 -14.41689,-0.60392 -28.45174,-4.35319 -42.11285,-11.26086 -13.65755,-6.90056 -25.14147,-17.71174 -34.44583,-32.43 l 19.81775,-17.11495 c 3.0006,9.31267 9.38385,17.34394 19.14144,24.09737 9.75879,6.75699 20.18556,11.0378 31.29574,12.84006 1.79632,0.29544 3.52028,0.51968 5.17541,0.67036 1.65158,0.15543 3.22841,0.22781 4.73049,0.22781 11.40561,0 21.91662,-3.5274 31.52353,-10.5822 9.60098,-7.04887 15.0137,-18.23735 16.2156,-33.5536 v -6.75699 c 0,-15.01251 -5.55865,-26.26862 -16.66764,-33.77547 -11.11018,-7.50566 -23.8672,-14.40859 -38.27697,-20.71353 -2.106,-0.59205 -4.20607,-1.34428 -6.30376,-2.25075 -2.10244,-0.89935 -4.05775,-1.79751 -5.85645,-2.70517 -17.11376,-7.19836 -32.65069,-16.20729 -46.61554,-27.01373 -13.96484,-10.80526 -20.93778,-27.91902 -20.93778,-51.34246 0,-13.10584 2.0977,-24.604 6.24325,-34.53719 L 27.760864,391.43177 209.12114,571.73608 292.26122,488.10837 c -12.76413,5.64526 -26.2093,8.7479 -40.34144,9.27588 z"
         id="path1101"
         style="fill:#000080;fill-opacity:1;stroke:#ffffff;stroke-width:1.18647802" />
      <text
         y="560.22443"
         x="302.2688"
         style="font-style:normal;font-variant:normal;font-weight:bold;font-stretch:normal;font-size:24.35732651px;line-height:0%;font-family:Verdana;-inkscape-font-specification:'Verdana Bold';fill:#5a5b5d"
         id="text1103"
         font-size="20.5291">Szczecińska Grupa Użytkowników Linuksa/Uniksa</text>
    </g>
  </g>
</svg>
